<?xml version="1.0" ?><!DOCTYPE svg  PUBLIC '-//W3C//DTD SVG 1.0//EN'  'http://www.w3.org/TR/2001/REC-SVG-20010904/DTD/svg10.dtd'><svg xmlns="http://www.w3.org/2000/svg" xmlns:xlink="http://www.w3.org/1999/xlink" version="1.0" id="Layer_1" width="100px" height="100px" viewBox="0 0 100 100" enable-background="new 0 0 100 100" xml:space="preserve"><path d="M21.795,80c2.826,4.196,6.643,7.669,11.168,10h27.408c4.524-2.331,8.34-5.804,11.165-10H21.795z"/><path d="M57.79,37.578l3.232-3.854c1.699,0.299,3.499-0.277,4.684-1.693c1.14-1.354,1.426-3.131,0.935-4.701  c4.89-5.158,10.459-9.537,16.692-12.949L80.931,10c-6.507,3.564-12.574,8.268-17.962,13.959c-1.765-0.395-3.679,0.166-4.919,1.646  c-1.185,1.412-1.438,3.285-0.853,4.902l-4.717,5.625L30,30c-8.246,8.52-13.334,20.306-13.334,33.333  c0,4.147,0.877,8.08,2.398,11.667h55.203c1.523-3.587,2.399-7.52,2.399-11.667c0-9.121-3.815-17.37-10-23.333L57.79,37.578z   M31.666,65l-5-3.333l5-3.334l5,3.334L31.666,65z M53.333,68.333l-6.667-3.184L40,68.333l3.184-6.666L40,55l6.666,3.184L53.333,55  l-3.184,6.667L53.333,68.333z M61.667,65l-5-3.333l5-3.334l5,3.334L61.667,65z"/></svg>